<?xml version="1.0" encoding="utf-8"?>
<!-- Generator: Adobe Illustrator 24.3.0, SVG Export Plug-In . SVG Version: 6.00 Build 0)  -->
<svg version="1.1" id="Layer_1" xmlns="http://www.w3.org/2000/svg" xmlns:xlink="http://www.w3.org/1999/xlink" x="0px" y="0px"
	 viewBox="0 0 112 112" style="enable-background:new 0 0 112 112;" xml:space="preserve">
<style type="text/css">
	.st0{fill-rule:evenodd;clip-rule:evenodd;fill:#FFD400;}
	.st1{fill:#FFD400;}
</style>
<g>
	<path class="st0" d="M104,58.5c-1.3-0.1-2.3-1.2-2.3-2.5s1-2.4,2.3-2.5l5-0.3c1.6-0.1,3,1.2,3,2.8s-1.4,2.9-3,2.8L104,58.5z
		 M95.5,33.2c0.7,1.1,2.1,1.6,3.3,1l4.5-2.3c1.4-0.7,2-2.5,1.2-3.9c-0.8-1.4-2.6-1.8-4-0.9l-4.2,2.8C95.2,30.6,94.9,32,95.5,33.2z
		 M78.8,16.5c1.1,0.7,2.6,0.4,3.3-0.8l2.8-4.2c0.9-1.4,0.5-3.2-0.9-4c-1.4-0.8-3.2-0.2-3.9,1.2l-2.3,4.5
		C77.2,14.4,77.7,15.8,78.8,16.5z M56,10.4c1.3,0,2.4-1,2.5-2.3l0.3-5c0.1-1.6-1.2-3-2.8-3s-2.9,1.4-2.8,3l0.3,5
		C53.6,9.4,54.7,10.4,56,10.4z M33.2,16.5c1.1-0.7,1.6-2.1,1-3.3l-2.3-4.5c-0.7-1.4-2.5-2-3.9-1.2c-1.4,0.8-1.8,2.6-0.9,4l2.8,4.2
		C30.6,16.8,32,17.1,33.2,16.5z M16.5,33.2c0.7-1.1,0.4-2.6-0.8-3.3l-4.2-2.8c-1.4-0.9-3.2-0.5-4,0.9c-0.8,1.4-0.2,3.2,1.2,3.9
		l4.5,2.3C14.4,34.8,15.8,34.3,16.5,33.2z M8,53.5c1.3,0.1,2.3,1.2,2.3,2.5s-1,2.4-2.3,2.5l-5,0.3c-1.6,0.1-3-1.2-3-2.8
		s1.4-2.9,3-2.8L8,53.5z M16.5,78.8c-0.7-1.1-2.1-1.6-3.3-1l-4.5,2.3c-1.4,0.7-2,2.5-1.2,3.9c0.8,1.4,2.6,1.8,4,0.9l4.2-2.8
		C16.8,81.4,17.1,80,16.5,78.8z M33.2,95.5c-1.1-0.7-2.6-0.4-3.3,0.8l-2.8,4.2c-0.9,1.4-0.5,3.2,0.9,4c1.4,0.8,3.2,0.2,3.9-1.2
		l2.3-4.5C34.8,97.6,34.3,96.2,33.2,95.5z M56,101.6c-1.3,0-2.4,1-2.5,2.3l-0.3,5c-0.1,1.6,1.2,3,2.8,3s2.9-1.4,2.8-3l-0.3-5
		C58.4,102.6,57.3,101.6,56,101.6z M78.8,95.5c-1.1,0.7-1.6,2.1-1,3.3l2.3,4.5c0.7,1.4,2.5,2,3.9,1.2c1.4-0.8,1.8-2.6,0.9-4
		l-2.8-4.2C81.4,95.2,80,94.9,78.8,95.5z M95.5,78.8c-0.7,1.1-0.4,2.6,0.8,3.3l4.2,2.8c1.4,0.9,3.2,0.5,4-0.9
		c0.8-1.4,0.2-3.2-1.2-3.9l-4.5-2.3C97.6,77.2,96.2,77.7,95.5,78.8z"/>
	<path class="st1" d="M94.4,56c0,21.2-17.2,38.4-38.4,38.4c-21.2,0-38.4-17.2-38.4-38.4c0-21.2,17.2-38.4,38.4-38.4
		C77.2,17.6,94.4,34.8,94.4,56z"/>
</g>
</svg>
