<?xml version="1.0" encoding="utf-8"?>
<!-- Generator: Adobe Illustrator 24.3.0, SVG Export Plug-In . SVG Version: 6.00 Build 0)  -->
<svg version="1.1" id="Layer_1" xmlns="http://www.w3.org/2000/svg" xmlns:xlink="http://www.w3.org/1999/xlink" x="0px" y="0px"
	 viewBox="0 0 112 90.1" style="enable-background:new 0 0 112 90.1;" xml:space="preserve">
<style type="text/css">
	.st0{fill:#FFD400;}
	.st1{fill:#FFFFFF;}
</style>
<g>
	<path class="st0" d="M56.7,11.6c-0.8,0.5-1.8,0.2-2.3-0.5l-1.9-3c-0.6-1-0.4-2.2,0.6-2.8c1-0.6,2.2-0.2,2.7,0.8l1.6,3.2
		C57.9,10.1,57.5,11.1,56.7,11.6z"/>
	<path class="st0" d="M72.7,7.3c-0.9,0-1.7-0.7-1.8-1.6l-0.2-3.5C70.7,1,71.6,0,72.7,0c1.1,0,2,1,1.9,2.1l-0.2,3.5
		C74.4,6.6,73.7,7.3,72.7,7.3z"/>
	<path class="st0" d="M88.7,11.6c-0.8-0.5-1.1-1.5-0.7-2.3l1.6-3.2c0.5-1,1.8-1.4,2.7-0.8c1,0.6,1.2,1.8,0.6,2.8l-1.9,3
		C90.6,11.8,89.5,12,88.7,11.6z"/>
	<path class="st0" d="M100.4,23.3c-0.5-0.8-0.2-1.8,0.5-2.3l3-1.9c1-0.6,2.2-0.4,2.8,0.6c0.6,1,0.2,2.2-0.8,2.7l-3.2,1.6
		C101.9,24.4,100.9,24.1,100.4,23.3z"/>
	<path class="st0" d="M106.4,37.5c-0.9,0-1.6,0.8-1.6,1.8c0,0.9,0.7,1.7,1.6,1.8l3.5,0.2c1.1,0.1,2.1-0.8,2.1-1.9s-1-2-2.1-1.9
		L106.4,37.5z"/>
	<path class="st0" d="M54.5,19.5c4.8-4.4,11.2-7.1,18.2-7.1c14.9,0,26.9,12,26.9,26.9c0,1.1-0.1,2.2-0.2,3.2
		c-4.3-2.8-9.5-4.5-15.1-4.5c-2.3,0-4.5,0.3-6.6,0.8C73.1,29.5,64.7,22.4,54.5,19.5z"/>
	<path class="st1" d="M84.3,90.1c13.5,0,24.5-11,24.5-24.5s-11-24.5-24.5-24.5c-2.9,0-5.7,0.5-8.3,1.5
		c-5.1-12.6-17.5-21.4-31.9-21.4c-19,0-34.4,15.4-34.4,34.4c0,0.8,0,1.7,0.1,2.5C4,60.8,0,66.6,0,73.4c0,9.2,7.5,16.7,16.7,16.7
		H84.3z"/>
</g>
</svg>
