<?xml version="1.0" encoding="utf-8"?>
<!-- Generator: Adobe Illustrator 24.3.0, SVG Export Plug-In . SVG Version: 6.00 Build 0)  -->
<svg version="1.1" id="Layer_1" xmlns="http://www.w3.org/2000/svg" xmlns:xlink="http://www.w3.org/1999/xlink" x="0px" y="0px"
	 viewBox="0 0 112 105.4" style="enable-background:new 0 0 112 105.4;" xml:space="preserve">
<style type="text/css">
	.st0{fill:#FFFFFF;}
	.st1{fill:#64D2FF;}
</style>
<g>
	<path class="st0" d="M25.2,70.9C11.3,70.9,0,59.6,0,45.7s11.3-25.2,25.2-25.2c3,0,5.9,0.5,8.6,1.5c5.3-12.9,18-22,32.8-22
		c19.6,0,35.5,15.9,35.5,35.5c0,0.9,0,1.7-0.1,2.6c5.9,2.7,10,8.7,10,15.7c0,9.5-7.7,17.2-17.2,17.2H25.2z"/>
	<path class="st1" d="M85,84.7l-3.4-7.2l-3.4,7.2c-0.3,0.6-0.5,1.3-0.5,2c0,2.2,1.8,4.1,4,4.1c2.2,0,4-1.8,4-4.1
		C85.5,86,85.3,85.3,85,84.7z"/>
	<path class="st1" d="M73,99.3l-3.4-7.2l-3.4,7.2c-0.3,0.6-0.5,1.3-0.5,2c0,2.2,1.8,4.1,4,4.1c2.2,0,4-1.8,4-4.1
		C73.6,100.6,73.4,99.9,73,99.3z"/>
	<path class="st1" d="M61.1,84.7l-3.4-7.2l-3.4,7.2c-0.3,0.6-0.5,1.3-0.5,2c0,2.2,1.8,4.1,4,4.1c2.2,0,4-1.8,4-4.1
		C61.6,86,61.4,85.3,61.1,84.7z"/>
	<path class="st1" d="M49.8,99.3l-3.4-7.2L43,99.3c-0.3,0.6-0.5,1.3-0.5,2c0,2.2,1.8,4.1,4,4.1c2.2,0,4-1.8,4-4.1
		C50.4,100.6,50.2,99.9,49.8,99.3z"/>
	<path class="st1" d="M37.9,84.7l-3.4-7.2L31,84.7c-0.3,0.6-0.5,1.3-0.5,2c0,2.2,1.8,4.1,4,4.1c2.2,0,4-1.8,4-4.1
		C38.4,86,38.2,85.3,37.9,84.7z"/>
	<path class="st1" d="M26,99.3l-3.4-7.2l-3.4,7.2c-0.3,0.6-0.5,1.3-0.5,2c0,2.2,1.8,4.1,4,4.1c2.2,0,4-1.8,4-4.1
		C26.5,100.6,26.3,99.9,26,99.3z"/>
</g>
</svg>
