<?xml version="1.0" encoding="utf-8"?>
<!-- Generator: Adobe Illustrator 24.3.0, SVG Export Plug-In . SVG Version: 6.00 Build 0)  -->
<svg version="1.1" id="Layer_1" xmlns="http://www.w3.org/2000/svg" xmlns:xlink="http://www.w3.org/1999/xlink" x="0px" y="0px"
	 viewBox="0 0 112 84.8" style="enable-background:new 0 0 112 84.8;" xml:space="preserve">
<style type="text/css">
	.st0{fill:#64D2FF;}
	.st1{fill:#FFFFFF;}
</style>
<g>
	<path class="st0" d="M38.9,44.6c0-0.9,0.7-1.6,1.6-1.6s1.6,0.7,1.6,1.6v5.6l2.7-2.4c0.6-0.6,1.6-0.5,2.2,0.1
		c0.6,0.6,0.5,1.6-0.1,2.2L42,54.4v7l6.4-3.7l1.3-5.8c0.2-0.8,1-1.4,1.8-1.2c0.8,0.2,1.4,1,1.2,1.8L52,55.6l4.6-2.6
		c0.7-0.4,1.7-0.2,2.1,0.6c0.4,0.7,0.2,1.7-0.6,2.1l-4.9,2.8l3.4,1.1c0.8,0.3,1.3,1.1,1,1.9c-0.3,0.8-1.1,1.2-2,1l-6.1-2l-5.9,3.4
		l6.4,3.7l5.7-1.8c0.8-0.3,1.7,0.2,2,1c0.3,0.8-0.2,1.7-1,1.9l-3,1l4.5,2.6c0.7,0.4,1,1.4,0.6,2.1c-0.4,0.7-1.4,1-2.1,0.6l-5-2.8
		l0.8,3.5c0.2,0.8-0.4,1.6-1.2,1.8c-0.8,0.2-1.7-0.4-1.8-1.2L48.1,70L42,66.5V74l4.5,4c0.6,0.6,0.7,1.5,0.1,2.2
		c-0.6,0.6-1.6,0.7-2.2,0.1L42,78.1v5.2c0,0.9-0.7,1.6-1.6,1.6s-1.6-0.7-1.6-1.6v-5.6l-2.7,2.4c-0.6,0.6-1.6,0.5-2.2-0.1
		s-0.5-1.6,0.1-2.2l4.8-4.2v-6.9l-6.5,3.7l-1.2,5.8c-0.2,0.8-1,1.4-1.8,1.2c-0.8-0.2-1.4-1-1.2-1.8l0.7-3.1L24.2,75
		c-0.7,0.4-1.7,0.2-2.1-0.6c-0.4-0.7-0.2-1.7,0.6-2.1l5-2.8l-3.5-1.1c-0.8-0.3-1.3-1.1-1-1.9c0.3-0.8,1.1-1.2,2-1l6.1,2l6.2-3.5
		l-6.5-3.7L25.1,62c-0.8,0.3-1.7-0.2-2-1c-0.3-0.8,0.2-1.7,1-1.9l3.1-1l-4.6-2.6c-0.7-0.4-1-1.4-0.6-2.1c0.4-0.7,1.4-1,2.1-0.6
		l4.9,2.8l-0.7-3.5c-0.2-0.8,0.4-1.6,1.2-1.8c0.8-0.2,1.7,0.4,1.8,1.2l1.3,6.2l6.1,3.5v-7.3l-4.4-3.9c-0.6-0.6-0.7-1.5-0.1-2.2
		c0.6-0.6,1.6-0.7,2.2-0.1l2.4,2.1V44.6z"/>
	<path class="st1" d="M61.1,70.9c-0.3-0.3-0.6-0.5-0.9-0.7L60,70.1c0.9-1.1,1.3-2.6,0.8-4.1c-0.3-0.8-0.7-1.4-1.3-1.9
		c0.5-0.5,1-1.1,1.2-1.8c0.5-1.6,0-3.3-1.1-4.3l0.4-0.2c2-1.2,2.7-3.8,1.6-5.8c-1.2-2-3.8-2.7-5.8-1.5l-0.2,0.1
		c-0.5-1.4-1.6-2.5-3.2-2.8c-0.8-0.2-1.6-0.1-2.3,0.2c-0.1-0.8-0.5-1.5-1.1-2.2c-1.1-1.2-2.9-1.7-4.4-1.2V44c0-2.4-1.9-4.3-4.3-4.3
		c-2.4,0-4.3,1.9-4.3,4.3v0.1c-1.4-0.3-3,0.1-4,1.3c-0.6,0.6-0.9,1.3-1,2.1c-0.7-0.3-1.6-0.4-2.4-0.2c-1.6,0.3-2.9,1.6-3.3,3.1
		L25,50.2c-2-1.1-4.6-0.5-5.8,1.5c-1.2,2-0.5,4.6,1.6,5.8l0.2,0.1c-1,1.1-1.4,2.6-0.9,4.1c0.3,0.8,0.7,1.5,1.3,1.9
		c-0.6,0.5-1.1,1.2-1.4,2c-0.5,1.6,0,3.3,1.1,4.4l-0.4,0.2c-0.1,0-0.2,0.1-0.2,0.1C8.8,68.3,0,58,0,45.7c0-13.9,11.3-25.2,25.2-25.2
		c3,0,5.9,0.5,8.6,1.5c5.3-12.9,18-22,32.8-22c19.6,0,35.5,15.9,35.5,35.5c0,0.9,0,1.7-0.1,2.6c5.9,2.7,10,8.7,10,15.7
		c0,9.5-7.7,17.2-17.2,17.2H61.1z"/>
</g>
</svg>
