<?xml version="1.0" encoding="utf-8"?>
<!-- Generator: Adobe Illustrator 24.3.0, SVG Export Plug-In . SVG Version: 6.00 Build 0)  -->
<svg version="1.1" id="Layer_1" xmlns="http://www.w3.org/2000/svg" xmlns:xlink="http://www.w3.org/1999/xlink" x="0px" y="0px"
	 viewBox="0 0 112 104" style="enable-background:new 0 0 112 104;" xml:space="preserve">
<style type="text/css">
	.st0{fill:#FFD400;}
	.st1{fill:#FFFFFF;}
	.st2{fill:#64D2FF;}
</style>
<g>
	<path class="st0" d="M81.3,46.4h-7c-1.3,0-2.5,0.8-2.9,2.1l-6.5,20.4c-0.6,1.9,0.8,3.9,2.9,3.9h3.6c1.1,0,2.1,1,2,2.1l-1.1,21.5
		c0,0.5,0.7,0.7,0.9,0.3l15.4-29.8c1-2-0.4-4.4-2.7-4.4h-3c-1.4,0-2.3-1.3-1.9-2.6l3.2-9.5C84.8,48.4,83.3,46.4,81.3,46.4z"/>
	<path class="st1" d="M90.2,70.9l2.1-4c1.8-3.5-0.7-7.7-4.7-7.7h-2.8l3-9.1c1.1-3.4-1.4-7-5-7h-9.2c-2.3,0-4.3,1.5-5,3.7l-7.2,22.4
		c-0.2,0.6-0.3,1.2-0.3,1.7H25.2C11.3,70.9,0,59.6,0,45.7s11.3-25.2,25.2-25.2c3,0,5.9,0.5,8.6,1.5c5.3-12.9,18-22,32.8-22
		c19.6,0,35.5,15.9,35.5,35.5c0,0.9,0,1.7-0.1,2.6c5.9,2.7,10,8.7,10,15.7c0,9.5-7.7,17.2-17.2,17.2H90.2z"/>
	<path class="st2" d="M60.4,98L57,90.8L53.6,98c-0.3,0.6-0.5,1.3-0.5,2c0,2.2,1.8,4,4,4c2.2,0,4-1.8,4-4C61,99.3,60.8,98.6,60.4,98z
		"/>
	<path class="st2" d="M48.5,84.7l-3.4-7.2l-3.4,7.2c-0.3,0.6-0.5,1.3-0.5,2c0,2.2,1.8,4.1,4,4.1c2.2,0,4-1.8,4-4.1
		C49,86,48.8,85.3,48.5,84.7z"/>
	<path class="st2" d="M36.6,98l-3.4-7.2L29.7,98c-0.3,0.6-0.5,1.3-0.5,2c0,2.2,1.8,4,4,4c2.2,0,4-1.8,4-4
		C37.1,99.3,36.9,98.6,36.6,98z"/>
	<path class="st2" d="M24.6,84.7l-3.4-7.2l-3.4,7.2c-0.3,0.6-0.5,1.3-0.5,2c0,2.2,1.8,4.1,4,4.1s4-1.8,4-4.1
		C25.2,86,25,85.3,24.6,84.7z"/>
</g>
</svg>
